#tb 0: 1/1
#media_type 0: video
#codec_id 0: fits
#dimensions 0: 72x36
#sar 0: 0/1
0,          0,          0,        1,    23040, 0x8688ce1d
0,          1,          1,        1,    23040, 0x81aadbf2
0,          2,          2,        1,    23040, 0x94f2cb6d
0,          3,          3,        1,    23040, 0x4c076291
0,          4,          4,        1,    23040, 0x4b988d97
